<svg xmlns="http://www.w3.org/2000/svg" xmlns:xlink="http://www.w3.org/1999/xlink" width="500" zoomAndPan="magnify" viewBox="0 0 375 374.999991" height="500" preserveAspectRatio="xMidYMid meet" version="1.2"><defs><clipPath id="d5580eac95"><path d="M 25 0 L 350 0 L 350 375 L 25 375 Z M 25 0 "/></clipPath><clipPath id="ccaec50b0f"><path d="M -55.878906 142.882812 L 268.328125 -46.476562 L 431 232.042969 L 106.789062 421.402344 Z M -55.878906 142.882812 "/></clipPath><clipPath id="ca975d4ca0"><path d="M 349.546875 92.851562 L 349.859375 279.433594 L 187.8125 374.078125 L 25.453125 282.140625 L 25.140625 95.5625 L 187.1875 0.917969 Z M 349.546875 92.851562 "/></clipPath><clipPath id="0e962d2e42"><path d="M 55.238281 35.632812 L 319.726562 35.632812 L 319.726562 339 L 55.238281 339 Z M 55.238281 35.632812 "/></clipPath></defs><g id="38c3ac15a8"><g clip-rule="nonzero" clip-path="url(#d5580eac95)"><g clip-rule="nonzero" clip-path="url(#ccaec50b0f)"><g clip-rule="nonzero" clip-path="url(#ca975d4ca0)"><path style=" stroke:none;fill-rule:nonzero;fill:#65b30e;fill-opacity:1;" d="M -55.878906 142.882812 L 268.332031 -46.476562 L 431 232.042969 L 106.789062 421.402344 Z M -55.878906 142.882812 "/></g></g></g><path style=" stroke:none;fill-rule:nonzero;fill:#87ff00;fill-opacity:1;" d="M 134.582031 135.703125 L 134.414062 135.535156 L 97.035156 172.914062 L 187.792969 263.503906 L 225.175781 226.296875 L 278.546875 172.914062 L 241.167969 135.535156 L 241.167969 135.363281 L 134.417969 135.363281 Z M 134.582031 135.703125 "/><g clip-rule="nonzero" clip-path="url(#0e962d2e42)"><path style=" stroke:none;fill-rule:nonzero;fill:#87ff00;fill-opacity:1;" d="M 187.453125 35.851562 L 55.269531 111.625 L 55.273438 263.175781 L 187.457031 338.949219 L 319.640625 263.175781 L 319.640625 111.625 L 187.457031 35.855469 Z M 294.375 248.683594 L 187.453125 310.308594 L 80.527344 248.683594 L 80.53125 125.765625 L 187.457031 64.136719 L 294.378906 125.765625 L 294.378906 248.683594 Z M 294.375 248.683594 "/></g><g style="fill:#000000;fill-opacity:1;"><g transform="translate(107.862698, 205.794306)"><path style="stroke:none" d="M 21.90625 -13.15625 C 21.90625 -10.375 21.503906 -7.945312 20.703125 -5.875 C 19.910156 -3.8125 18.734375 -2.207031 17.171875 -1.0625 C 15.609375 0.0703125 13.675781 0.640625 11.375 0.640625 C 9.082031 0.640625 7.15625 0.0820312 5.59375 -1.03125 C 4.03125 -2.15625 2.847656 -3.742188 2.046875 -5.796875 C 1.253906 -7.859375 0.859375 -10.3125 0.859375 -13.15625 C 0.859375 -15.9375 1.253906 -18.359375 2.046875 -20.421875 C 2.847656 -22.484375 4.03125 -24.082031 5.59375 -25.21875 C 7.15625 -26.363281 9.082031 -26.9375 11.375 -26.9375 C 13.675781 -26.9375 15.609375 -26.378906 17.171875 -25.265625 C 18.734375 -24.160156 19.910156 -22.578125 20.703125 -20.515625 C 21.503906 -18.453125 21.90625 -16 21.90625 -13.15625 Z M 15.53125 -13.15625 C 15.53125 -16.394531 15.207031 -18.742188 14.5625 -20.203125 C 13.914062 -21.671875 12.851562 -22.40625 11.375 -22.40625 C 9.894531 -22.40625 8.832031 -21.671875 8.1875 -20.203125 C 7.539062 -18.734375 7.21875 -16.382812 7.21875 -13.15625 C 7.21875 -9.925781 7.546875 -7.578125 8.203125 -6.109375 C 8.867188 -4.640625 9.925781 -3.90625 11.375 -3.90625 C 12.894531 -3.90625 13.96875 -4.644531 14.59375 -6.125 C 15.21875 -7.613281 15.53125 -9.957031 15.53125 -13.15625 Z M 15.53125 -13.15625 "/></g></g><g style="fill:#000000;fill-opacity:1;"><g transform="translate(130.613483, 205.794306)"><path style="stroke:none" d=""/></g></g><g style="fill:#000000;fill-opacity:1;"><g transform="translate(153.364267, 205.794306)"><path style="stroke:none" d="M 15.453125 -17.703125 C 15.453125 -18.640625 15.273438 -19.414062 14.921875 -20.03125 C 14.578125 -20.644531 14.054688 -21.097656 13.359375 -21.390625 C 12.660156 -21.691406 11.78125 -21.84375 10.71875 -21.84375 L 8.59375 -21.84375 L 8.59375 -13.25 L 11.03125 -13.25 C 11.957031 -13.25 12.75 -13.40625 13.40625 -13.71875 C 14.0625 -14.039062 14.566406 -14.53125 14.921875 -15.1875 C 15.273438 -15.84375 15.453125 -16.679688 15.453125 -17.703125 Z M 21.859375 -17.734375 C 21.859375 -15.691406 21.421875 -14.003906 20.546875 -12.671875 C 19.679688 -11.347656 18.460938 -10.359375 16.890625 -9.703125 C 15.328125 -9.054688 13.507812 -8.734375 11.4375 -8.734375 L 8.59375 -8.734375 L 8.59375 0 L 2.375 0 L 2.375 -26.28125 L 10.640625 -26.28125 C 14.203125 -26.28125 16.960938 -25.570312 18.921875 -24.15625 C 20.878906 -22.738281 21.859375 -20.597656 21.859375 -17.734375 Z M 21.859375 -17.734375 "/></g></g><g style="fill:#000000;fill-opacity:1;"><g transform="translate(176.115052, 205.794306)"><path style="stroke:none" d=""/></g></g><g style="fill:#000000;fill-opacity:1;"><g transform="translate(198.865837, 205.794306)"><path style="stroke:none" d="M 9.75 -21.84375 L 9.75 -15.53125 L 18.84375 -15.53125 L 18.84375 -11.171875 L 9.75 -11.171875 L 9.75 -4.453125 L 20.71875 -4.453125 L 20.71875 0 L 3.53125 0 L 3.53125 -26.28125 L 20.703125 -26.28125 L 20.078125 -21.84375 Z M 9.75 -21.84375 "/></g></g><g style="fill:#000000;fill-opacity:1;"><g transform="translate(221.616622, 205.794306)"><path style="stroke:none" d=""/></g></g><g style="fill:#000000;fill-opacity:1;"><g transform="translate(244.367407, 205.794306)"><path style="stroke:none" d="M 13.234375 0 L 6.3125 -21.140625 C 6.40625 -20.566406 6.503906 -19.878906 6.609375 -19.078125 C 6.710938 -18.273438 6.816406 -17.382812 6.921875 -16.40625 C 7.023438 -15.425781 7.109375 -14.382812 7.171875 -13.28125 C 7.234375 -12.1875 7.265625 -11.066406 7.265625 -9.921875 L 7.265625 0 L 1.96875 0 L 1.96875 -26.28125 L 9.734375 -26.28125 L 16.4375 -5.25 C 16.300781 -6.050781 16.160156 -7.003906 16.015625 -8.109375 C 15.867188 -9.210938 15.742188 -10.445312 15.640625 -11.8125 C 15.535156 -13.175781 15.484375 -14.644531 15.484375 -16.21875 L 15.484375 -26.28125 L 20.78125 -26.28125 L 20.78125 0 Z M 13.234375 0 "/></g></g><g style="fill:#000000;fill-opacity:1;"><g transform="translate(62.358642, 258.460204)"><path style="stroke:none" d="M 21.546875 -7.671875 C 21.546875 -6.046875 21.117188 -4.609375 20.265625 -3.359375 C 19.410156 -2.109375 18.1875 -1.128906 16.59375 -0.421875 C 15 0.285156 13.082031 0.640625 10.84375 0.640625 C 8.363281 0.640625 6.285156 0.28125 4.609375 -0.4375 C 2.941406 -1.164062 1.554688 -2.066406 0.453125 -3.140625 L 3.609375 -6.640625 C 4.578125 -5.785156 5.648438 -5.128906 6.828125 -4.671875 C 8.003906 -4.210938 9.289062 -3.984375 10.6875 -3.984375 C 11.5625 -3.984375 12.328125 -4.109375 12.984375 -4.359375 C 13.640625 -4.609375 14.148438 -4.972656 14.515625 -5.453125 C 14.890625 -5.941406 15.078125 -6.523438 15.078125 -7.203125 C 15.078125 -7.847656 14.929688 -8.390625 14.640625 -8.828125 C 14.347656 -9.273438 13.859375 -9.675781 13.171875 -10.03125 C 12.484375 -10.382812 11.523438 -10.742188 10.296875 -11.109375 C 8.242188 -11.742188 6.59375 -12.4375 5.34375 -13.1875 C 4.101562 -13.945312 3.203125 -14.828125 2.640625 -15.828125 C 2.078125 -16.828125 1.796875 -17.992188 1.796875 -19.328125 C 1.796875 -20.929688 2.238281 -22.300781 3.125 -23.4375 C 4.019531 -24.570312 5.21875 -25.4375 6.71875 -26.03125 C 8.226562 -26.632812 9.890625 -26.9375 11.703125 -26.9375 C 13.734375 -26.9375 15.523438 -26.644531 17.078125 -26.0625 C 18.640625 -25.476562 19.988281 -24.640625 21.125 -23.546875 L 18.1875 -20.171875 C 17.300781 -20.921875 16.34375 -21.472656 15.3125 -21.828125 C 14.289062 -22.191406 13.25 -22.375 12.1875 -22.375 C 11.40625 -22.375 10.71875 -22.273438 10.125 -22.078125 C 9.53125 -21.878906 9.066406 -21.59375 8.734375 -21.21875 C 8.410156 -20.84375 8.25 -20.367188 8.25 -19.796875 C 8.25 -19.242188 8.40625 -18.773438 8.71875 -18.390625 C 9.039062 -18.015625 9.59375 -17.65625 10.375 -17.3125 C 11.15625 -16.976562 12.242188 -16.59375 13.640625 -16.15625 C 15.285156 -15.644531 16.695312 -15.039062 17.875 -14.34375 C 19.0625 -13.644531 19.96875 -12.765625 20.59375 -11.703125 C 21.226562 -10.640625 21.546875 -9.296875 21.546875 -7.671875 Z M 21.546875 -7.671875 "/></g></g><g style="fill:#000000;fill-opacity:1;"><g transform="translate(85.109427, 258.460204)"><path style="stroke:none" d=""/></g></g><g style="fill:#000000;fill-opacity:1;"><g transform="translate(107.860212, 258.460204)"><path style="stroke:none" d="M 21.90625 -13.15625 C 21.90625 -10.375 21.503906 -7.945312 20.703125 -5.875 C 19.910156 -3.8125 18.734375 -2.207031 17.171875 -1.0625 C 15.609375 0.0703125 13.675781 0.640625 11.375 0.640625 C 9.082031 0.640625 7.15625 0.0820312 5.59375 -1.03125 C 4.03125 -2.15625 2.847656 -3.742188 2.046875 -5.796875 C 1.253906 -7.859375 0.859375 -10.3125 0.859375 -13.15625 C 0.859375 -15.9375 1.253906 -18.359375 2.046875 -20.421875 C 2.847656 -22.484375 4.03125 -24.082031 5.59375 -25.21875 C 7.15625 -26.363281 9.082031 -26.9375 11.375 -26.9375 C 13.675781 -26.9375 15.609375 -26.378906 17.171875 -25.265625 C 18.734375 -24.160156 19.910156 -22.578125 20.703125 -20.515625 C 21.503906 -18.453125 21.90625 -16 21.90625 -13.15625 Z M 15.53125 -13.15625 C 15.53125 -16.394531 15.207031 -18.742188 14.5625 -20.203125 C 13.914062 -21.671875 12.851562 -22.40625 11.375 -22.40625 C 9.894531 -22.40625 8.832031 -21.671875 8.1875 -20.203125 C 7.539062 -18.734375 7.21875 -16.382812 7.21875 -13.15625 C 7.21875 -9.925781 7.546875 -7.578125 8.203125 -6.109375 C 8.867188 -4.640625 9.925781 -3.90625 11.375 -3.90625 C 12.894531 -3.90625 13.96875 -4.644531 14.59375 -6.125 C 15.21875 -7.613281 15.53125 -9.957031 15.53125 -13.15625 Z M 15.53125 -13.15625 "/></g></g><g style="fill:#000000;fill-opacity:1;"><g transform="translate(130.610997, 258.460204)"><path style="stroke:none" d=""/></g></g><g style="fill:#000000;fill-opacity:1;"><g transform="translate(153.361781, 258.460204)"><path style="stroke:none" d="M 21.15625 -26.28125 L 21.15625 -8.796875 C 21.15625 -7.003906 20.789062 -5.394531 20.0625 -3.96875 C 19.34375 -2.550781 18.257812 -1.425781 16.8125 -0.59375 C 15.363281 0.226562 13.550781 0.640625 11.375 0.640625 C 9.1875 0.640625 7.367188 0.242188 5.921875 -0.546875 C 4.472656 -1.347656 3.390625 -2.453125 2.671875 -3.859375 C 1.953125 -5.273438 1.59375 -6.921875 1.59375 -8.796875 L 1.59375 -26.28125 L 7.828125 -26.28125 L 7.828125 -11.109375 C 7.828125 -8.742188 8.039062 -6.960938 8.46875 -5.765625 C 8.90625 -4.578125 9.875 -3.984375 11.375 -3.984375 C 12.882812 -3.984375 13.851562 -4.578125 14.28125 -5.765625 C 14.707031 -6.960938 14.921875 -8.742188 14.921875 -11.109375 L 14.921875 -26.28125 Z M 21.15625 -26.28125 "/></g></g><g style="fill:#000000;fill-opacity:1;"><g transform="translate(176.112566, 258.460204)"><path style="stroke:none" d=""/></g></g><g style="fill:#000000;fill-opacity:1;"><g transform="translate(198.863351, 258.460204)"><path style="stroke:none" d="M 21.296875 -18.296875 C 21.296875 -17.046875 21.0625 -15.953125 20.59375 -15.015625 C 20.125 -14.078125 19.488281 -13.285156 18.6875 -12.640625 C 17.894531 -12.003906 17.003906 -11.488281 16.015625 -11.09375 L 22.90625 0 L 15.875 0 L 10.1875 -10.046875 L 8.421875 -10.046875 L 8.421875 0 L 2.203125 0 L 2.203125 -26.28125 L 10.46875 -26.28125 C 14.039062 -26.28125 16.738281 -25.628906 18.5625 -24.328125 C 20.382812 -23.023438 21.296875 -21.015625 21.296875 -18.296875 Z M 14.890625 -18.296875 C 14.890625 -19.554688 14.519531 -20.472656 13.78125 -21.046875 C 13.039062 -21.628906 11.941406 -21.921875 10.484375 -21.921875 L 8.421875 -21.921875 L 8.421875 -14.3125 L 10.734375 -14.3125 C 12.085938 -14.3125 13.117188 -14.628906 13.828125 -15.265625 C 14.535156 -15.898438 14.890625 -16.910156 14.890625 -18.296875 Z M 14.890625 -18.296875 "/></g></g><g style="fill:#000000;fill-opacity:1;"><g transform="translate(221.614136, 258.460204)"><path style="stroke:none" d=""/></g></g><g style="fill:#000000;fill-opacity:1;"><g transform="translate(244.364921, 258.460204)"><path style="stroke:none" d="M 13.578125 -26.9375 C 15.460938 -26.9375 17.0625 -26.6875 18.375 -26.1875 C 19.695312 -25.695312 20.910156 -24.992188 22.015625 -24.078125 L 18.96875 -20.40625 C 18.238281 -21 17.4375 -21.46875 16.5625 -21.8125 C 15.695312 -22.164062 14.753906 -22.34375 13.734375 -22.34375 C 12.628906 -22.34375 11.617188 -22.023438 10.703125 -21.390625 C 9.796875 -20.765625 9.070312 -19.78125 8.53125 -18.4375 C 7.988281 -17.09375 7.71875 -15.347656 7.71875 -13.203125 C 7.71875 -11.085938 7.976562 -9.363281 8.5 -8.03125 C 9.03125 -6.695312 9.753906 -5.71875 10.671875 -5.09375 C 11.597656 -4.46875 12.65625 -4.15625 13.84375 -4.15625 C 15.15625 -4.15625 16.25 -4.398438 17.125 -4.890625 C 18 -5.378906 18.800781 -5.914062 19.53125 -6.5 L 22.359375 -2.90625 C 21.367188 -1.925781 20.148438 -1.085938 18.703125 -0.390625 C 17.265625 0.296875 15.53125 0.640625 13.5 0.640625 C 11.125 0.640625 9.015625 0.113281 7.171875 -0.9375 C 5.335938 -1.988281 3.898438 -3.539062 2.859375 -5.59375 C 1.816406 -7.65625 1.296875 -10.191406 1.296875 -13.203125 C 1.296875 -16.128906 1.832031 -18.613281 2.90625 -20.65625 C 3.988281 -22.707031 5.457031 -24.265625 7.3125 -25.328125 C 9.175781 -26.398438 11.265625 -26.9375 13.578125 -26.9375 Z M 13.578125 -26.9375 "/></g></g><g style="fill:#000000;fill-opacity:1;"><g transform="translate(267.115705, 258.460204)"><path style="stroke:none" d=""/></g></g><g style="fill:#000000;fill-opacity:1;"><g transform="translate(289.86649, 258.460204)"><path style="stroke:none" d="M 9.75 -21.84375 L 9.75 -15.53125 L 18.84375 -15.53125 L 18.84375 -11.171875 L 9.75 -11.171875 L 9.75 -4.453125 L 20.71875 -4.453125 L 20.71875 0 L 3.53125 0 L 3.53125 -26.28125 L 20.703125 -26.28125 L 20.078125 -21.84375 Z M 9.75 -21.84375 "/></g></g><g style="fill:#000000;fill-opacity:1;"><g transform="translate(60.450908, 160.541158)"><path style="stroke:none" d="M 16.78125 -27.84375 L 19.828125 -22.375 C 20.847656 -19.019531 20.6875 -15.957031 19.34375 -13.1875 C 18 -10.414062 15.972656 -8.273438 13.265625 -6.765625 C 9.859375 -4.867188 6.242188 -4.53125 2.421875 -5.75 C -1.390625 -6.96875 -4.300781 -9.382812 -6.3125 -13 C -8.351562 -16.664062 -8.90625 -20.414062 -7.96875 -24.25 C -7.03125 -28.09375 -4.804688 -30.988281 -1.296875 -32.9375 C 2.796875 -35.21875 6.835938 -35.578125 10.828125 -34.015625 L 9.375 -27.796875 C 6.8125 -29.210938 4.332031 -29.253906 1.9375 -27.921875 C 0.15625 -26.929688 -0.929688 -25.316406 -1.328125 -23.078125 C -1.722656 -20.835938 -1.316406 -18.628906 -0.109375 -16.453125 C 1.078125 -14.304688 2.722656 -12.820312 4.828125 -12 C 6.929688 -11.175781 8.875 -11.257812 10.65625 -12.25 C 12.113281 -13.0625 13.140625 -14.21875 13.734375 -15.71875 C 14.335938 -17.21875 14.234375 -18.695312 13.421875 -20.15625 L 7.609375 -16.921875 L 5.140625 -21.359375 Z M 16.78125 -27.84375 "/></g></g><g style="fill:#000000;fill-opacity:1;"><g transform="translate(106.670796, 137.706088)"><path style="stroke:none" d="M 7.75 -32.484375 L 27.21875 -8.1875 L 20.4375 -6.140625 L 16.734375 -11.0625 L 6.203125 -7.890625 L 5.828125 -1.75 L -0.9375 0.28125 L 1.90625 -30.734375 Z M 12.921875 -15.953125 L 7.421875 -23.0625 L 7.359375 -23.046875 L 6.703125 -14.078125 Z M 12.921875 -15.953125 "/></g></g><g style="fill:#000000;fill-opacity:1;"><g transform="translate(155.357794, 125.796248)"><path style="stroke:none" d="M 5.890625 -29.578125 L 8.09375 -6.578125 L 18 -7.515625 L 18.546875 -1.765625 L 2.078125 -0.203125 L -0.671875 -28.953125 Z M 5.890625 -29.578125 "/></g></g><g style="fill:#000000;fill-opacity:1;"><g transform="translate(197.912833, 123.787752)"><path style="stroke:none" d="M 2.3125 -22.96875 L 2.828125 -28.734375 L 23.046875 -26.953125 L 22.53125 -21.1875 L 15.703125 -21.796875 L 13.671875 1.203125 L 7.109375 0.625 L 9.140625 -22.375 Z M 2.3125 -22.96875 "/></g></g><g style="fill:#000000;fill-opacity:1;"><g transform="translate(241.103982, 129.566405)"><path style="stroke:none" d="M 33.4375 -20.265625 L 13.1875 -2.140625 L 26 1.625 L 24.375 7.171875 L 0.546875 0.15625 L 20.75 -17.96875 L 9 -21.421875 L 10.640625 -26.96875 Z M 33.4375 -20.265625 "/></g></g><g style="fill:#000000;fill-opacity:1;"><g transform="translate(287.860458, 145.679278)"><path style="stroke:none" d="M 7.703125 -12.265625 C 9.722656 -15.921875 12.675781 -18.328125 16.5625 -19.484375 C 20.445312 -20.648438 24.144531 -20.265625 27.65625 -18.328125 C 31.1875 -16.367188 33.492188 -13.445312 34.578125 -9.5625 C 35.660156 -5.675781 35.1875 -1.894531 33.15625 1.78125 C 31.113281 5.476562 28.179688 7.921875 24.359375 9.109375 C 20.535156 10.296875 16.816406 9.890625 13.203125 7.890625 C 9.503906 5.847656 7.144531 2.914062 6.125 -0.90625 C 5.113281 -4.738281 5.640625 -8.523438 7.703125 -12.265625 Z M 13.90625 -8.828125 C 13.175781 -7.503906 12.710938 -6.179688 12.515625 -4.859375 C 12.328125 -3.546875 12.535156 -2.226562 13.140625 -0.90625 C 13.742188 0.414062 14.789062 1.488281 16.28125 2.3125 C 18.425781 3.5 20.445312 3.65625 22.34375 2.78125 C 24.25 1.914062 25.773438 0.441406 26.921875 -1.640625 C 28.054688 -3.703125 28.476562 -5.78125 28.1875 -7.875 C 27.894531 -9.96875 26.695312 -11.597656 24.59375 -12.765625 C 22.507812 -13.910156 20.488281 -14.054688 18.53125 -13.203125 C 16.582031 -12.347656 15.039062 -10.890625 13.90625 -8.828125 Z M 13.90625 -8.828125 "/></g></g></g></svg>